<svg width="320" height="320" viewBox="0 0 320 320" fill="none" xmlns="http://www.w3.org/2000/svg">
<rect width="320" height="320" fill="white"/>
<path d="M112.94 144.27C113.52 139.147 117.29 136.585 124.25 136.585C127.923 136.585 130.63 136.875 132.37 137.455C134.11 138.035 135.318 139.05 135.995 140.5C136.768 141.853 137.203 143.062 137.3 144.125C137.493 145.188 137.59 146.832 137.59 149.055V233.735C137.59 235.958 137.493 237.602 137.3 238.665C137.203 239.728 136.768 240.937 135.995 242.29C135.318 243.643 134.062 244.61 132.225 245.19C130.485 245.77 128.117 246.06 125.12 246.06C122.123 246.06 119.755 245.77 118.015 245.19C116.275 244.61 115.018 243.595 114.245 242.145C113.568 240.792 113.133 239.583 112.94 238.52C112.843 237.457 112.795 235.813 112.795 233.59V204.3C108.928 208.747 103.467 210.97 96.41 210.97C87.8067 210.97 80.025 207.248 73.065 199.805C66.105 192.362 62.625 183.71 62.625 173.85C62.625 163.99 66.1533 155.338 73.21 147.895C80.2667 140.452 87.71 136.73 95.54 136.73C103.467 136.73 109.267 139.243 112.94 144.27ZM91.045 182.55C93.5583 185.063 96.555 186.32 100.035 186.32C103.515 186.32 106.415 185.063 108.735 182.55C111.055 179.94 112.215 177.137 112.215 174.14C112.215 171.047 111.103 168.195 108.88 165.585C106.657 162.878 103.66 161.525 99.89 161.525C96.2167 161.525 93.22 162.83 90.9 165.44C88.58 167.953 87.42 170.805 87.42 173.995C87.42 177.185 88.6283 180.037 91.045 182.55ZM191.1 136.73C199.703 136.73 207.581 140.548 214.735 148.185C221.985 155.822 225.61 164.715 225.61 174.865C225.61 184.918 222.033 193.763 214.88 201.4C207.726 208.94 200.041 212.71 191.825 212.71C183.608 212.71 177.76 210.39 174.28 205.75C173.506 210.487 169.35 212.855 161.81 212.855C155.72 212.855 151.998 211.55 150.645 208.94C149.968 207.49 149.533 206.233 149.34 205.17C149.243 204.01 149.195 202.318 149.195 200.095V113.53C149.195 111.307 149.243 109.663 149.34 108.6C149.533 107.44 149.968 106.183 150.645 104.83C151.998 102.22 155.768 100.915 161.955 100.915C168.045 100.915 171.718 102.22 172.975 104.83C173.748 106.28 174.183 107.585 174.28 108.745C174.473 109.808 174.57 111.452 174.57 113.675V143.835C178.436 139.098 183.946 136.73 191.1 136.73ZM178.34 183.565C180.756 186.175 183.753 187.48 187.33 187.48C190.906 187.48 193.951 186.175 196.465 183.565C198.978 180.955 200.235 178.055 200.235 174.865C200.235 171.675 199.075 168.775 196.755 166.165C194.435 163.458 191.341 162.105 187.475 162.105C183.608 162.105 180.515 163.458 178.195 166.165C175.971 168.872 174.86 171.82 174.86 175.01C174.86 178.103 176.02 180.955 178.34 183.565ZM254.648 189.075C256.291 190.718 257.113 194.102 257.113 199.225V199.805C257.113 202.125 257.016 203.865 256.823 205.025C256.726 206.088 256.243 207.393 255.373 208.94C253.923 211.743 250.25 213.145 244.353 213.145C238.553 213.145 234.686 212.227 232.753 210.39C230.916 208.553 229.998 205.073 229.998 199.95V199.37C229.998 197.147 230.046 195.455 230.143 194.295C230.336 193.135 230.82 191.83 231.593 190.38C233.043 187.48 236.668 186.03 242.468 186.03C248.365 186.03 252.425 187.045 254.648 189.075Z" fill="#0342FE"/>
</svg>

